<mxfile host="app.diagrams.net" agent="Mozilla/5.0 (Macintosh; Intel Mac OS X 10_15_7) AppleWebKit/537.36 (KHTML, like Gecko) Chrome/131.0.0.0 Safari/537.36" version="24.9.1">
  <diagram name="PÃ¡gina-1" id="JUC5Op8LKVZEDe6p3GAk">
    <mxGraphModel dx="1530" dy="976" grid="1" gridSize="10" guides="1" tooltips="1" connect="1" arrows="1" fold="1" page="1" pageScale="1" pageWidth="827" pageHeight="1169" math="0" shadow="0">
      <root>
        <mxCell id="0" />
        <mxCell id="1" parent="0" />
        <mxCell id="Wsu2dBDzwpKaiLWRd72R-1" style="edgeStyle=none;curved=1;rounded=0;orthogonalLoop=1;jettySize=auto;html=1;exitX=0.5;exitY=1;exitDx=0;exitDy=0;fontSize=12;startSize=8;endSize=8;" edge="1" parent="1" source="Wsu2dBDzwpKaiLWRd72R-2" target="Wsu2dBDzwpKaiLWRd72R-3">
          <mxGeometry relative="1" as="geometry" />
        </mxCell>
        <mxCell id="Wsu2dBDzwpKaiLWRd72R-2" value="&lt;font style=&quot;font-size: 14px;&quot;&gt;Client&lt;/font&gt;" style="rounded=1;whiteSpace=wrap;html=1;" vertex="1" parent="1">
          <mxGeometry x="99" y="20" width="102" height="49" as="geometry" />
        </mxCell>
        <mxCell id="Wsu2dBDzwpKaiLWRd72R-6" style="edgeStyle=orthogonalEdgeStyle;rounded=0;orthogonalLoop=1;jettySize=auto;html=1;exitX=1;exitY=0.5;exitDx=0;exitDy=0;" edge="1" parent="1" source="Wsu2dBDzwpKaiLWRd72R-3" target="Wsu2dBDzwpKaiLWRd72R-5">
          <mxGeometry relative="1" as="geometry" />
        </mxCell>
        <mxCell id="Wsu2dBDzwpKaiLWRd72R-3" value="&lt;font style=&quot;font-size: 14px;&quot;&gt;Authority node&lt;/font&gt;" style="rounded=1;whiteSpace=wrap;html=1;" vertex="1" parent="1">
          <mxGeometry x="78.75" y="185" width="142.5" height="57" as="geometry" />
        </mxCell>
        <mxCell id="Wsu2dBDzwpKaiLWRd72R-4" value="&lt;font&gt;Sends transaction&lt;/font&gt;" style="text;strokeColor=none;fillColor=none;html=1;align=center;verticalAlign=middle;whiteSpace=wrap;rounded=0;fontSize=14;" vertex="1" parent="1">
          <mxGeometry x="50" y="100" width="100" height="30" as="geometry" />
        </mxCell>
        <mxCell id="Wsu2dBDzwpKaiLWRd72R-10" style="edgeStyle=orthogonalEdgeStyle;rounded=0;orthogonalLoop=1;jettySize=auto;html=1;exitX=0.5;exitY=1;exitDx=0;exitDy=0;entryX=0.5;entryY=0;entryDx=0;entryDy=0;" edge="1" parent="1" source="Wsu2dBDzwpKaiLWRd72R-5" target="Wsu2dBDzwpKaiLWRd72R-9">
          <mxGeometry relative="1" as="geometry" />
        </mxCell>
        <mxCell id="Wsu2dBDzwpKaiLWRd72R-5" value="&lt;font style=&quot;font-size: 14px;&quot;&gt;Validates identity and authority&lt;/font&gt;" style="rounded=1;whiteSpace=wrap;html=1;" vertex="1" parent="1">
          <mxGeometry x="480" y="185" width="142.5" height="57" as="geometry" />
        </mxCell>
        <mxCell id="Wsu2dBDzwpKaiLWRd72R-8" value="&lt;font&gt;Validates transaction syntax and semantics. Checks against business rules.&lt;/font&gt;" style="text;strokeColor=none;fillColor=none;html=1;align=center;verticalAlign=middle;whiteSpace=wrap;rounded=0;fontSize=14;" vertex="1" parent="1">
          <mxGeometry x="260" y="160" width="190" height="30" as="geometry" />
        </mxCell>
        <mxCell id="Wsu2dBDzwpKaiLWRd72R-19" style="rounded=0;orthogonalLoop=1;jettySize=auto;html=1;exitX=0;exitY=0.5;exitDx=0;exitDy=0;entryX=1;entryY=0.5;entryDx=0;entryDy=0;" edge="1" parent="1" source="Wsu2dBDzwpKaiLWRd72R-9" target="Wsu2dBDzwpKaiLWRd72R-12">
          <mxGeometry relative="1" as="geometry" />
        </mxCell>
        <mxCell id="Wsu2dBDzwpKaiLWRd72R-20" style="rounded=0;orthogonalLoop=1;jettySize=auto;html=1;exitX=0;exitY=0.5;exitDx=0;exitDy=0;entryX=1;entryY=0.5;entryDx=0;entryDy=0;" edge="1" parent="1" source="Wsu2dBDzwpKaiLWRd72R-9" target="Wsu2dBDzwpKaiLWRd72R-13">
          <mxGeometry relative="1" as="geometry" />
        </mxCell>
        <mxCell id="Wsu2dBDzwpKaiLWRd72R-21" style="rounded=0;orthogonalLoop=1;jettySize=auto;html=1;exitX=0;exitY=0.5;exitDx=0;exitDy=0;entryX=1;entryY=0.5;entryDx=0;entryDy=0;" edge="1" parent="1" source="Wsu2dBDzwpKaiLWRd72R-9" target="Wsu2dBDzwpKaiLWRd72R-14">
          <mxGeometry relative="1" as="geometry" />
        </mxCell>
        <mxCell id="Wsu2dBDzwpKaiLWRd72R-9" value="&lt;font style=&quot;font-size: 14px;&quot;&gt;Creates new block&lt;/font&gt;" style="rounded=1;whiteSpace=wrap;html=1;" vertex="1" parent="1">
          <mxGeometry x="480" y="320" width="142.5" height="57" as="geometry" />
        </mxCell>
        <mxCell id="Wsu2dBDzwpKaiLWRd72R-11" value="&lt;font&gt;Updates state with transaction&lt;/font&gt;" style="text;strokeColor=none;fillColor=none;html=1;align=center;verticalAlign=middle;whiteSpace=wrap;rounded=0;fontSize=14;" vertex="1" parent="1">
          <mxGeometry x="570" y="270" width="110" height="30" as="geometry" />
        </mxCell>
        <mxCell id="Wsu2dBDzwpKaiLWRd72R-12" value="&lt;font style=&quot;font-size: 14px;&quot;&gt;Authority node 1&lt;/font&gt;" style="rounded=1;whiteSpace=wrap;html=1;" vertex="1" parent="1">
          <mxGeometry x="270" y="280" width="125" height="40" as="geometry" />
        </mxCell>
        <mxCell id="Wsu2dBDzwpKaiLWRd72R-13" value="&lt;font style=&quot;font-size: 14px;&quot;&gt;Authority node 2&lt;/font&gt;" style="rounded=1;whiteSpace=wrap;html=1;" vertex="1" parent="1">
          <mxGeometry x="270" y="337" width="125" height="40" as="geometry" />
        </mxCell>
        <mxCell id="Wsu2dBDzwpKaiLWRd72R-30" style="edgeStyle=orthogonalEdgeStyle;rounded=0;orthogonalLoop=1;jettySize=auto;html=1;exitX=0;exitY=0.5;exitDx=0;exitDy=0;" edge="1" parent="1" source="Wsu2dBDzwpKaiLWRd72R-14" target="Wsu2dBDzwpKaiLWRd72R-25">
          <mxGeometry relative="1" as="geometry" />
        </mxCell>
        <mxCell id="Wsu2dBDzwpKaiLWRd72R-14" value="&lt;font style=&quot;font-size: 14px;&quot;&gt;Authority node N&lt;/font&gt;" style="rounded=1;whiteSpace=wrap;html=1;" vertex="1" parent="1">
          <mxGeometry x="270" y="440" width="125" height="40" as="geometry" />
        </mxCell>
        <mxCell id="Wsu2dBDzwpKaiLWRd72R-15" value="&lt;span&gt;.&lt;/span&gt;" style="text;whiteSpace=wrap;html=1;align=center;fontColor=default;fontSize=39;" vertex="1" parent="1">
          <mxGeometry x="308.62" y="350" width="47.75" height="32" as="geometry" />
        </mxCell>
        <mxCell id="Wsu2dBDzwpKaiLWRd72R-16" style="edgeStyle=none;curved=1;rounded=0;orthogonalLoop=1;jettySize=auto;html=1;entryX=0.612;entryY=0.025;entryDx=0;entryDy=0;entryPerimeter=0;fontSize=12;startSize=8;endSize=8;" edge="1" parent="1" source="Wsu2dBDzwpKaiLWRd72R-15" target="Wsu2dBDzwpKaiLWRd72R-15">
          <mxGeometry relative="1" as="geometry" />
        </mxCell>
        <mxCell id="Wsu2dBDzwpKaiLWRd72R-17" value="&lt;span&gt;.&lt;/span&gt;" style="text;whiteSpace=wrap;html=1;align=center;fontColor=default;fontSize=39;" vertex="1" parent="1">
          <mxGeometry x="308.62" y="370" width="47.75" height="32" as="geometry" />
        </mxCell>
        <mxCell id="Wsu2dBDzwpKaiLWRd72R-18" value="&lt;span&gt;.&lt;/span&gt;" style="text;whiteSpace=wrap;html=1;align=center;fontColor=default;fontSize=39;" vertex="1" parent="1">
          <mxGeometry x="308.62" y="388" width="47.75" height="32" as="geometry" />
        </mxCell>
        <mxCell id="Wsu2dBDzwpKaiLWRd72R-22" value="&lt;font&gt;Signs block with private key and broadcasts signed block to network&lt;/font&gt;" style="text;strokeColor=none;fillColor=none;html=1;align=center;verticalAlign=middle;whiteSpace=wrap;rounded=0;fontSize=14;" vertex="1" parent="1">
          <mxGeometry x="450" y="410" width="150" height="30" as="geometry" />
        </mxCell>
        <mxCell id="Wsu2dBDzwpKaiLWRd72R-31" style="edgeStyle=orthogonalEdgeStyle;rounded=0;orthogonalLoop=1;jettySize=auto;html=1;exitX=0.218;exitY=0.977;exitDx=0;exitDy=0;entryX=0.5;entryY=0;entryDx=0;entryDy=0;exitPerimeter=0;" edge="1" parent="1" source="Wsu2dBDzwpKaiLWRd72R-25" target="Wsu2dBDzwpKaiLWRd72R-29">
          <mxGeometry relative="1" as="geometry" />
        </mxCell>
        <mxCell id="Wsu2dBDzwpKaiLWRd72R-33" style="edgeStyle=orthogonalEdgeStyle;rounded=0;orthogonalLoop=1;jettySize=auto;html=1;exitX=0.5;exitY=1;exitDx=0;exitDy=0;entryX=0;entryY=0.5;entryDx=0;entryDy=0;" edge="1" parent="1" source="Wsu2dBDzwpKaiLWRd72R-25" target="Wsu2dBDzwpKaiLWRd72R-26">
          <mxGeometry relative="1" as="geometry" />
        </mxCell>
        <mxCell id="Wsu2dBDzwpKaiLWRd72R-25" value="&lt;div&gt;&lt;span style=&quot;background-color: initial; font-size: 14px;&quot;&gt;Is block valid?&lt;/span&gt;&lt;/div&gt;" style="text;whiteSpace=wrap;html=1;align=center;" vertex="1" parent="1">
          <mxGeometry x="80" y="445.01" width="140" height="29.99" as="geometry" />
        </mxCell>
        <mxCell id="Wsu2dBDzwpKaiLWRd72R-35" style="edgeStyle=orthogonalEdgeStyle;rounded=0;orthogonalLoop=1;jettySize=auto;html=1;exitX=1;exitY=0.5;exitDx=0;exitDy=0;entryX=0;entryY=0.5;entryDx=0;entryDy=0;" edge="1" parent="1" source="Wsu2dBDzwpKaiLWRd72R-26" target="Wsu2dBDzwpKaiLWRd72R-34">
          <mxGeometry relative="1" as="geometry" />
        </mxCell>
        <mxCell id="Wsu2dBDzwpKaiLWRd72R-26" value="Block added to blockchain" style="rounded=1;whiteSpace=wrap;html=1;fontSize=14;" vertex="1" parent="1">
          <mxGeometry x="280" y="508.25" width="90" height="96.75" as="geometry" />
        </mxCell>
        <mxCell id="Wsu2dBDzwpKaiLWRd72R-27" value="&lt;span style=&quot;font-size: 14px;&quot;&gt;Yes&lt;/span&gt;" style="text;whiteSpace=wrap;html=1;align=center;fontColor=default;" vertex="1" parent="1">
          <mxGeometry x="153.25" y="520" width="47.75" height="32" as="geometry" />
        </mxCell>
        <mxCell id="Wsu2dBDzwpKaiLWRd72R-28" value="&lt;span style=&quot;font-size: 14px;&quot;&gt;No&lt;/span&gt;" style="text;whiteSpace=wrap;html=1;align=center;fontColor=default;" vertex="1" parent="1">
          <mxGeometry x="70" y="500" width="47.75" height="32" as="geometry" />
        </mxCell>
        <mxCell id="Wsu2dBDzwpKaiLWRd72R-29" value="&lt;span style=&quot;font-size: 14px;&quot;&gt;Reject block and altert network&amp;nbsp;&lt;/span&gt;" style="text;whiteSpace=wrap;html=1;align=center;fontColor=default;verticalAlign=middle;" vertex="1" parent="1">
          <mxGeometry x="40" y="565" width="141.38" height="40" as="geometry" />
        </mxCell>
        <mxCell id="Wsu2dBDzwpKaiLWRd72R-37" style="edgeStyle=orthogonalEdgeStyle;rounded=0;orthogonalLoop=1;jettySize=auto;html=1;exitX=0.5;exitY=1;exitDx=0;exitDy=0;entryX=0.5;entryY=0;entryDx=0;entryDy=0;" edge="1" parent="1" source="Wsu2dBDzwpKaiLWRd72R-34" target="Wsu2dBDzwpKaiLWRd72R-36">
          <mxGeometry relative="1" as="geometry">
            <mxPoint x="551" y="660" as="targetPoint" />
          </mxGeometry>
        </mxCell>
        <mxCell id="Wsu2dBDzwpKaiLWRd72R-34" value="&lt;span style=&quot;font-size: 14px;&quot;&gt;Updates distributed on ledger&lt;/span&gt;" style="rounded=1;whiteSpace=wrap;html=1;" vertex="1" parent="1">
          <mxGeometry x="481.25" y="529.94" width="140" height="53.37" as="geometry" />
        </mxCell>
        <mxCell id="Wsu2dBDzwpKaiLWRd72R-39" style="edgeStyle=orthogonalEdgeStyle;rounded=0;orthogonalLoop=1;jettySize=auto;html=1;exitX=0;exitY=0.5;exitDx=0;exitDy=0;" edge="1" parent="1" source="Wsu2dBDzwpKaiLWRd72R-36">
          <mxGeometry relative="1" as="geometry">
            <mxPoint x="400" y="684.7894736842106" as="targetPoint" />
          </mxGeometry>
        </mxCell>
        <mxCell id="Wsu2dBDzwpKaiLWRd72R-43" style="edgeStyle=orthogonalEdgeStyle;rounded=0;orthogonalLoop=1;jettySize=auto;html=1;exitX=0.5;exitY=1;exitDx=0;exitDy=0;entryX=1;entryY=0.5;entryDx=0;entryDy=0;" edge="1" parent="1" source="Wsu2dBDzwpKaiLWRd72R-36" target="Wsu2dBDzwpKaiLWRd72R-42">
          <mxGeometry relative="1" as="geometry" />
        </mxCell>
        <mxCell id="Wsu2dBDzwpKaiLWRd72R-36" value="&lt;font&gt;Is authority node online?&lt;/font&gt;" style="text;strokeColor=none;fillColor=none;html=1;align=center;verticalAlign=middle;whiteSpace=wrap;rounded=0;fontSize=14;" vertex="1" parent="1">
          <mxGeometry x="476.25" y="670" width="150" height="30" as="geometry" />
        </mxCell>
        <mxCell id="Wsu2dBDzwpKaiLWRd72R-38" value="&lt;span style=&quot;font-size: 14px;&quot;&gt;Monitoring for failures&lt;/span&gt;" style="text;whiteSpace=wrap;html=1;align=center;fontColor=default;verticalAlign=middle;" vertex="1" parent="1">
          <mxGeometry x="554.31" y="605" width="105.69" height="40" as="geometry" />
        </mxCell>
        <mxCell id="Wsu2dBDzwpKaiLWRd72R-40" value="&lt;span style=&quot;font-size: 14px;&quot;&gt;Continue with normal operations&lt;/span&gt;" style="text;whiteSpace=wrap;html=1;align=center;fontColor=default;verticalAlign=middle;" vertex="1" parent="1">
          <mxGeometry x="260" y="665" width="135" height="40" as="geometry" />
        </mxCell>
        <mxCell id="Wsu2dBDzwpKaiLWRd72R-41" value="&lt;span style=&quot;font-size: 14px;&quot;&gt;Yes&lt;/span&gt;" style="text;whiteSpace=wrap;html=1;align=center;fontColor=default;" vertex="1" parent="1">
          <mxGeometry x="420" y="650" width="47.75" height="32" as="geometry" />
        </mxCell>
        <mxCell id="Wsu2dBDzwpKaiLWRd72R-42" value="&lt;span style=&quot;font-size: 14px;&quot;&gt;Backup authority node&lt;/span&gt;" style="rounded=1;whiteSpace=wrap;html=1;" vertex="1" parent="1">
          <mxGeometry x="257.5" y="760" width="140" height="53.37" as="geometry" />
        </mxCell>
        <mxCell id="Wsu2dBDzwpKaiLWRd72R-44" value="&lt;span style=&quot;font-size: 14px;&quot;&gt;No&lt;/span&gt;" style="text;whiteSpace=wrap;html=1;align=center;fontColor=default;" vertex="1" parent="1">
          <mxGeometry x="450" y="760" width="47.75" height="32" as="geometry" />
        </mxCell>
      </root>
    </mxGraphModel>
  </diagram>
</mxfile>
